<svg width="315" height="67" fill="none" xmlns="http://www.w3.org/2000/svg"><rect y="24" width="3" height="19" rx="1.5" fill="#06E9EE"/><rect x="8" y="19" width="3" height="29" rx="1.5" fill="#06E9EE"/><rect x="16" y="15" width="3" height="37" rx="1.5" fill="#06E9EE"/><rect x="24" y="1" width="3" height="65" rx="1.5" fill="#06E9EE"/><rect x="32" y="10" width="3" height="47" rx="1.5" fill="#06E9EE"/><rect x="40" y="16" width="3" height="35" rx="1.5" fill="#06E9EE"/><rect x="48" y="1" width="3" height="65" rx="1.5" fill="#06E9EE"/><rect x="56" y="15" width="3" height="37" rx="1.5" fill="#06E9EE"/><rect x="64" y="4" width="3" height="59" rx="1.5" fill="#06E9EE"/><rect x="72" y="21" width="3" height="25" rx="1.5" fill="#06E9EE"/><rect x="80" y="16" width="3" height="35" rx="1.5" fill="#06E9EE"/><rect x="88" y="22" width="3" height="23" rx="1.5" fill="#06E9EE"/><rect x="96" y="18" width="3" height="31" rx="1.5" fill="#06E9EE"/><rect x="104" y="3" width="3" height="61" rx="1.5" fill="#06E9EE"/><rect x="112" y="14" width="3" height="39" rx="1.5" fill="#06E9EE"/><rect x="120" y="6" width="3" height="55" rx="1.5" fill="#06E9EE"/><rect x="128" y="6" width="3" height="55" rx="1.5" fill="#06E9EE"/><rect x="136" y="23" width="3" height="21" rx="1.5" fill="#9092AF" fill-opacity=".3"/><rect x="144" y="17" width="3" height="33" rx="1.5" fill="#9092AF" fill-opacity=".3"/><rect x="152" y="12" width="3" height="43" rx="1.5" fill="#9092AF" fill-opacity=".3"/><rect x="160" y="23" width="3" height="21" rx="1.5" fill="#9092AF" fill-opacity=".3"/><rect x="168" y="17" width="3" height="33" rx="1.5" fill="#9092AF" fill-opacity=".3"/><rect x="176" y="14" width="3" height="39" rx="1.5" fill="#9092AF" fill-opacity=".3"/><rect x="184" y="5" width="3" height="57" rx="1.5" fill="#9092AF" fill-opacity=".3"/><rect x="192" y="8" width="3" height="51" rx="1.5" fill="#9092AF" fill-opacity=".3"/><rect x="200" y="15" width="3" height="37" rx="1.5" fill="#9092AF" fill-opacity=".3"/><rect x="208" y="5" width="3" height="57" rx="1.5" fill="#9092AF" fill-opacity=".3"/><rect x="216" y="17" width="3" height="33" rx="1.5" fill="#9092AF" fill-opacity=".3"/><rect x="224" y="23" width="3" height="21" rx="1.5" fill="#9092AF" fill-opacity=".3"/><rect x="232" y="15" width="3" height="37" rx="1.5" fill="#9092AF" fill-opacity=".3"/><rect x="240" y="24" width="3" height="19" rx="1.5" fill="#9092AF" fill-opacity=".3"/><rect x="248" y="20" width="3" height="27" rx="1.5" fill="#9092AF" fill-opacity=".3"/><rect x="256" y="17" width="3" height="33" rx="1.5" fill="#9092AF" fill-opacity=".3"/><rect x="264" y="12" width="3" height="43" rx="1.5" fill="#9092AF" fill-opacity=".3"/><rect x="272" y="3" width="3" height="61" rx="1.5" fill="#9092AF" fill-opacity=".3"/><rect x="280" y="9" width="3" height="49" rx="1.5" fill="#9092AF" fill-opacity=".3"/><rect x="288" y="15" width="3" height="37" rx="1.5" fill="#9092AF" fill-opacity=".3"/><rect x="296" y="23" width="3" height="21" rx="1.5" fill="#9092AF" fill-opacity=".3"/><rect x="304" y="17" width="3" height="33" rx="1.5" fill="#9092AF" fill-opacity=".3"/><rect x="312" y="26" width="3" height="15" rx="1.5" fill="#9092AF" fill-opacity=".3"/></svg>