<svg width="27" height="28" fill="none" xmlns="http://www.w3.org/2000/svg"><path fill-rule="evenodd" clip-rule="evenodd" d="M20.971.097c-.573.199-1.018.804-1.021 1.39-.001.16.049.57.11.912.062.34.113.662.113.712 0 .06-.16.014-.456-.131-3.406-1.673-7.554-1.857-11.139-.495C5.461 3.67 2.863 5.994 1.382 8.923.488 10.693.077 12.304.012 14.3c-.048 1.49.04 2.382.357 3.647.885 3.529 3.243 6.553 6.513 8.354 4.832 2.661 10.956 2.16 15.253-1.249.757-.6 1.992-1.883 2.558-2.656.567-.776 1.44-2.435 1.745-3.319.288-.831.561-2.05.562-2.502.001-.823-.49-1.405-1.334-1.583-.553-.116-1.364.266-1.632.77-.062.116-.18.537-.262.936-.518 2.513-1.885 4.638-3.968 6.163-1.762 1.29-3.608 1.919-5.858 1.994-1.933.065-3.302-.218-4.99-1.033-2.995-1.444-5.008-4.051-5.637-7.3-.168-.867-.17-2.54-.004-3.44a10.193 10.193 0 0 1 6.909-7.866c1.19-.384 2.004-.508 3.346-.508 1.354 0 2.249.138 3.32.51.599.209 1.812.753 1.77.794-.015.014-.533.113-1.151.219-.788.135-1.22.247-1.442.372-.395.223-.707.72-.755 1.204-.072.735.556 1.507 1.329 1.634.275.046 5.785-.816 6.37-.996.57-.174 1.059-.825 1.062-1.411.001-.322-.933-5.705-1.052-6.065a1.504 1.504 0 0 0-.317-.467A1.631 1.631 0 0 0 20.97.097Z" fill="#fff"/></svg>